<?xml version="1.0" standalone="no"?>
<!DOCTYPE svg PUBLIC "-//W3C//DTD SVG 20010904//EN"
 "http://www.w3.org/TR/2001/REC-SVG-20010904/DTD/svg10.dtd">
<svg version="1.0" xmlns="http://www.w3.org/2000/svg"
 width="609.000000pt" height="360.000000pt" viewBox="0 0 609.000000 360.000000"
 preserveAspectRatio="xMidYMid meet">

<g transform="translate(0.000000,360.000000) scale(0.100000,-0.100000)"
fill="#000000" stroke="none">
<path d="M2967 3503 c-36 -54 -150 -228 -254 -388 -371 -569 -710 -1085 -739
-1124 l-17 -24 -18 24 c-10 13 -80 113 -155 222 -74 108 -139 197 -144 197 -4
0 -10 -6 -13 -12 -2 -7 -76 -114 -162 -238 -271 -386 -1236 -1795 -1410 -2058
-26 -40 -46 -74 -43 -77 2 -3 146 27 319 66 173 38 460 100 639 136 l325 66
1715 -2 1715 -2 225 -35 c360 -55 747 -139 1050 -228 46 -14 85 -24 86 -23 5
6 -1629 2353 -1659 2384 -9 9 -49 -37 -166 -193 -85 -112 -158 -203 -163 -202
-12 4 -751 1121 -958 1448 -51 80 -96 149 -100 153 -4 5 -37 -36 -73 -90z m42
-424 c-19 -85 -96 -346 -115 -393 -8 -22 -6 -21 64 26 l42 29 28 -21 c15 -12
88 -79 162 -149 74 -70 262 -244 418 -385 155 -142 282 -260 282 -263 0 -2 -6
0 -13 4 -22 13 -615 451 -732 541 l-110 84 -197 -398 c-109 -218 -198 -402
-198 -408 1 -6 88 78 194 186 l194 197 103 -112 c57 -62 190 -200 294 -307
232 -237 695 -733 690 -739 -7 -7 -695 582 -958 821 -66 60 -122 108 -127 108
-4 0 -29 -28 -56 -62 -26 -35 -100 -128 -164 -208 -64 -80 -158 -200 -208
-267 -125 -166 -143 -182 -248 -225 -49 -21 -145 -60 -214 -88 -206 -85 -423
-182 -455 -204 -16 -11 -112 -89 -212 -173 -164 -136 -188 -153 -235 -162 -29
-6 -181 -35 -338 -66 -157 -30 -311 -61 -342 -69 -40 -9 -55 -10 -51 -2 14 24
249 368 473 691 129 187 316 461 415 607 98 147 181 265 183 263 2 -2 -21 -84
-52 -182 -48 -154 -139 -465 -181 -616 -12 -44 -12 -47 2 -35 9 7 121 136 250
286 128 149 236 272 238 272 5 0 6 1 -125 -325 -118 -294 -125 -315 -106 -295
24 25 1108 1657 1335 2010 46 72 86 129 88 126 2 -2 -6 -46 -18 -97z m1385
-1150 c-8 -52 -21 -119 -28 -149 -8 -30 -17 -67 -20 -82 l-6 -28 45 32 45 32
113 -120 c110 -116 290 -309 471 -507 49 -54 87 -99 85 -101 -2 -2 -54 39
-115 92 -60 54 -182 158 -269 232 -87 74 -190 163 -227 198 -77 70 -74 70
-147 5 l-44 -39 28 -54 c15 -30 83 -151 151 -270 67 -119 128 -229 135 -244 9
-18 40 -42 98 -73 441 -238 652 -356 739 -416 57 -38 101 -71 99 -73 -2 -3
-73 12 -158 31 -141 33 -297 64 -472 95 -61 11 -76 19 -150 78 -155 126 -155
125 -372 541 -110 211 -213 409 -229 441 l-29 57 26 39 c13 21 73 117 132 212
59 95 109 172 111 170 2 -3 -3 -47 -12 -99z"/>
</g>
</svg>
